<?xml version="1.0" encoding="utf-8"?>
<!-- Generator: Adobe Illustrator 25.3.1, SVG Export Plug-In . SVG Version: 6.00 Build 0)  -->
<svg version="1.1" xmlns="http://www.w3.org/2000/svg" xmlns:xlink="http://www.w3.org/1999/xlink" x="0px" y="0px"
	 viewBox="0 0 50 50" style="enable-background:new 0 0 50 50;" xml:space="preserve">
<path d="M24,23.4c6.5,0,11.7-5.2,11.7-11.7C35.7,5.2,30.5,0,24,0S12.4,5.2,12.4,11.7C12.4,18.1,17.6,23.4,24,23.4z M24,4.7
	c3.9,0,7,3.1,7,7c0,3.9-3.1,7-7,7s-7-3.1-7-7S20.2,4.7,24,4.7z"/>
<polygon points="4.6,25.2 4.6,50 9.2,50 9.2,29.9 40.8,29.9 40.8,50 45.4,50 45.4,25.2 "/>
</svg>
