<?xml version="1.0" encoding="utf-8"?>
<!-- Generator: Adobe Illustrator 25.3.1, SVG Export Plug-In . SVG Version: 6.00 Build 0)  -->
<svg version="1.1" xmlns="http://www.w3.org/2000/svg" xmlns:xlink="http://www.w3.org/1999/xlink" x="0px" y="0px"
	 viewBox="0 0 20 20" style="enable-background:new 0 0 20 20;" xml:space="preserve">
<path d="M19.6,10.9l-5,5c-0.5,0.5-1.3,0.5-1.8,0s-0.5-1.3,0-1.8l2.9-2.9H1.2C0.6,11.2,0,10.7,0,10c0-0.7,0.6-1.2,1.2-1.2h14.5
	l-2.9-2.9c-0.5-0.5-0.5-1.3,0-1.8c0.5-0.5,1.3-0.5,1.8,0l5,5C20.1,9.6,20.1,10.4,19.6,10.9C19.6,10.9,19.6,10.9,19.6,10.9L19.6,10.9
	z"/>
</svg>
