<?xml version="1.0" encoding="utf-8"?>
<!-- Generator: Adobe Illustrator 25.3.1, SVG Export Plug-In . SVG Version: 6.00 Build 0)  -->
<svg version="1.1" id="Layer_1" xmlns="http://www.w3.org/2000/svg" xmlns:xlink="http://www.w3.org/1999/xlink" x="0px" y="0px"
	 viewBox="0 0 20 16" style="enable-background:new 0 0 20 16;" xml:space="preserve">
<path d="M19.1,0.9C18.6,0.3,17.8,0,17,0H3C2.2,0,1.4,0.3,0.9,0.9C0.3,1.4,0,2.2,0,3v10c0,0.8,0.3,1.6,0.9,2.1C1.4,15.7,2.2,16,3,16
	h14c0.8,0,1.6-0.3,2.1-0.9S20,13.8,20,13V3C20,2.2,19.7,1.4,19.1,0.9z M18,3v1H2V3c0-0.3,0.1-0.5,0.3-0.7C2.5,2.1,2.7,2,3,2h14
	c0.3,0,0.5,0.1,0.7,0.3C17.9,2.5,18,2.7,18,3z M3,14c-0.3,0-0.5-0.1-0.7-0.3S2,13.3,2,13V8h16v5c0,0.3-0.1,0.5-0.3,0.7
	C17.5,13.9,17.3,14,17,14H3z"/>
</svg>
