<?xml version="1.0" encoding="utf-8"?>
<!-- Generator: Adobe Illustrator 25.3.1, SVG Export Plug-In . SVG Version: 6.00 Build 0)  -->
<svg version="1.1" xmlns="http://www.w3.org/2000/svg" xmlns:xlink="http://www.w3.org/1999/xlink" x="0px" y="0px"
	 viewBox="0 0 50 50" style="enable-background:new 0 0 50 50;" xml:space="preserve">
<path d="M37.5,50C30.6,50,25,44.4,25,37.5c0-5.3,3.3-10,8.3-11.8V4.2c0-2.3,1.9-4.2,4.2-4.2c2.3,0,4.2,1.9,4.2,4.2v21.5
	c6.5,2.3,9.9,9.4,7.6,15.9C47.5,46.6,42.8,50,37.5,50z M37.5,33.3c-2.3,0-4.2,1.9-4.2,4.2c0,2.3,1.9,4.2,4.2,4.2
	c2.3,0,4.2-1.9,4.2-4.2C41.7,35.2,39.8,33.3,37.5,33.3z M12.5,50c-2.3,0-4.2-1.9-4.2-4.2v-9c-6.5-2.3-9.9-9.4-7.6-15.9
	c1.3-3.6,4.1-6.4,7.6-7.6v-9c0-2.3,1.9-4.2,4.2-4.2s4.2,1.9,4.2,4.2v9c6.5,2.3,9.9,9.4,7.6,15.9c-1.3,3.6-4.1,6.4-7.6,7.6v9
	C16.7,48.1,14.8,50,12.5,50z M12.5,20.8c-2.3,0-4.2,1.9-4.2,4.2s1.9,4.2,4.2,4.2s4.2-1.9,4.2-4.2S14.8,20.8,12.5,20.8z"/>
</svg>
