<?xml version="1.0" encoding="utf-8"?>
<!-- Generator: Adobe Illustrator 25.3.1, SVG Export Plug-In . SVG Version: 6.00 Build 0)  -->
<svg version="1.1" xmlns="http://www.w3.org/2000/svg" xmlns:xlink="http://www.w3.org/1999/xlink" x="0px" y="0px"
	 viewBox="0 0 16 16" style="enable-background:new 0 0 16 16;" xml:space="preserve">
<path d="M12.7,14.5c-0.3,0-0.5-0.1-0.7-0.3L10.8,13c-0.9,0.3-1.8,0.5-2.8,0.5c-3.2,0-5.7-1.8-7.6-5.2L0.2,8L0,7.5L0.2,7
	c0.5-1,1.1-1.9,1.8-2.7L1.2,3.5c-0.4-0.4-0.4-1-0.1-1.4s1-0.4,1.4-0.1c0,0,0.1,0.1,0.1,0.1l4,4c0.8-0.8,2.1-0.7,2.8,0
	c0.7,0.8,0.7,2,0,2.8l3.9,3.9c0.4,0.4,0.4,0.9,0.1,1.3l-0.1,0.1C13.2,14.4,12.9,14.5,12.7,14.5z M3.5,5.7c-0.4,0.5-0.7,0.9-1,1.5
	L2.3,7.5l0.2,0.3c1.5,2.5,3.3,3.7,5.6,3.7c0.4,0,0.8,0,1.1-0.1L3.5,5.7z M14,10.6L14,10.6l-1.4-1.4c0.4-0.5,0.8-1.1,1.1-1.7
	c-1.5-2.7-3.4-4-5.7-4c-0.3,0-0.7,0-1,0.1L5.4,2C6.2,1.6,7.1,1.5,8,1.5c3.2,0,5.7,1.8,7.6,5.2L15.8,7L16,7.5L15.8,8
	C15.3,8.9,14.7,9.8,14,10.6L14,10.6z"/>
</svg>
