<?xml version="1.0" encoding="utf-8"?>
<!-- Generator: Adobe Illustrator 25.3.1, SVG Export Plug-In . SVG Version: 6.00 Build 0)  -->
<svg version="1.1" xmlns="http://www.w3.org/2000/svg" xmlns:xlink="http://www.w3.org/1999/xlink" x="0px" y="0px"
	 viewBox="0 0 16 16" style="enable-background:new 0 0 16 16;" xml:space="preserve">
<path d="M8,14c-3.2,0-5.7-1.8-7.6-5.2L0.2,8.5L0,8l0.2-0.5C2.1,3.9,4.7,2,8,2c3.2,0,5.7,1.8,7.6,5.2l0.2,0.3L16,8l-0.2,0.5
	C13.9,12.1,11.3,14,8,14z M8,4C5.7,4,3.9,5.2,2.4,7.7L2.3,8l0.2,0.3C3.9,10.8,5.7,12,8,12c2.4,0,4.3-1.3,5.7-4C12.3,5.3,10.4,4,8,4z
	 M8,10c-1.1,0-2-0.9-2-2s0.9-2,2-2s2,0.9,2,2S9.1,10,8,10z"/>
</svg>
