<?xml version="1.0" encoding="utf-8"?>
<!-- Generator: Adobe Illustrator 25.3.1, SVG Export Plug-In . SVG Version: 6.00 Build 0)  -->
<svg version="1.1" xmlns="http://www.w3.org/2000/svg" xmlns:xlink="http://www.w3.org/1999/xlink" x="0px" y="0px"
	 viewBox="0 0 50 50" style="enable-background:new 0 0 50 50;" xml:space="preserve">
<path d="M25,50L25,50l-1.4-1C9.8,39.2,3.1,30.5,3.1,22.3C3,10.1,12.8,0.1,25,0c12.2,0.1,22,10.1,21.9,22.3c0,8-6.3,16.5-19.4,26
	L26.4,49L25,50z M25,6.2c-8.7,0.1-15.7,7.3-15.6,16c0,5.4,4.9,11.9,14.6,19.3l1,0.7l1-0.7c9.7-7.4,14.6-13.9,14.6-19.3
	C40.7,13.5,33.7,6.4,25,6.2z M25,28.1c-3.5,0-6.2-2.8-6.2-6.2s2.8-6.2,6.2-6.2s6.2,2.8,6.2,6.2S28.5,28.1,25,28.1z"/>
</svg>
