<?xml version="1.0" encoding="utf-8"?>
<!-- Generator: Adobe Illustrator 25.3.1, SVG Export Plug-In . SVG Version: 6.00 Build 0)  -->
<svg version="1.1" xmlns="http://www.w3.org/2000/svg" xmlns:xlink="http://www.w3.org/1999/xlink" x="0px" y="0px"
	 viewBox="0 0 20 20" style="enable-background:new 0 0 20 20;" xml:space="preserve">
<path d="M15.6,7.5H15V5c0-2.8-2.2-5-5-5S5,2.2,5,5v2.5H4.4c-1,0-1.9,0.8-1.9,1.9v8.8c0,1,0.8,1.9,1.9,1.9h11.2c1,0,1.9-0.8,1.9-1.9
	V9.4C17.5,8.3,16.7,7.5,15.6,7.5z M11.4,13.3c-0.1,0.3-0.4,0.5-0.6,0.6v1.9c0,0.5-0.4,0.8-0.8,0.8s-0.8-0.4-0.8-0.8v-1.9
	c-0.8-0.5-1.1-1.5-0.6-2.3s1.5-1.1,2.3-0.6S11.9,12.5,11.4,13.3z M13.3,7.5H6.7V5c0-1.8,1.5-3.3,3.3-3.3c1.8,0,3.3,1.5,3.3,3.3V7.5z
	"/>
</svg>
