<?xml version="1.0" encoding="utf-8"?>
<!-- Generator: Adobe Illustrator 25.3.1, SVG Export Plug-In . SVG Version: 6.00 Build 0)  -->
<svg version="1.1" id="Layer_1" xmlns="http://www.w3.org/2000/svg" xmlns:xlink="http://www.w3.org/1999/xlink" x="0px" y="0px"
	 viewBox="0 0 50 50" style="enable-background:new 0 0 50 50;" xml:space="preserve">
<path d="M46.9,50C22.3,50,0,27.7,0,3.1C0,1.4,1.4,0,3.1,0h9.4c5.2,0,9.4,4.2,9.4,9.4v9.4c0,1.3-0.9,2.5-2.1,3l-7,2.3l0.7,1.1
	c3.3,4.8,7.6,8.9,12.5,12.1l2.3-7c0.4-1.3,1.6-2.1,3-2.1h9.4c5.2,0,9.4,4.2,9.4,9.4v9.4C50,48.6,48.6,50,46.9,50z M33.5,34.4l-2,5.9
	l1.3,0.6c3.5,1.5,7.2,2.4,10.9,2.7v-6.1c0-1.7-1.4-3.1-3.1-3.1H33.5z M6.4,6.2L6.4,6.2c0.4,4.2,1.5,8.4,3.3,12.2l5.9-2V9.4
	c0-1.7-1.4-3.1-3.1-3.1H6.4z"/>
</svg>
