<?xml version="1.0" encoding="utf-8"?>
<!-- Generator: Adobe Illustrator 25.4.1, SVG Export Plug-In . SVG Version: 6.00 Build 0)  -->
<svg version="1.1" id="Layer_1" xmlns="http://www.w3.org/2000/svg" xmlns:xlink="http://www.w3.org/1999/xlink" x="0px" y="0px"
	 viewBox="0 0 20 20" style="enable-background:new 0 0 20 20;" xml:space="preserve">
<path d="M6.8,4.6c-0.4,0-0.7-0.3-0.7-0.8s0.3-0.8,0.7-0.8h5.4c0.4,0,0.7,0.3,0.7,0.8s-0.3,0.8-0.7,0.8H6.8z"/>
<path d="M6.8,8.5c-0.4,0-0.7-0.3-0.7-0.8c0-0.4,0.3-0.8,0.7-0.8h5.4c0.4,0,0.7,0.3,0.7,0.8c0,0.4-0.3,0.8-0.7,0.8H6.8z"/>
<path d="M6.7,16.9c-0.3,0-0.5-0.2-0.5-0.8c0-0.5,0.3-0.8,0.5-0.8h2.2c0.3,0,0.5,0.2,0.5,0.8c0,0.5-0.3,0.8-0.5,0.8H6.7z"/>
<path d="M4.6,2.7H3.1c-0.2,0-0.4,0.2-0.4,0.4l0,0v1.5C2.7,4.8,2.8,5,3.1,5l0,0h1.5C4.8,5,5,4.8,5,4.6l0,0V3.1C5,2.8,4.8,2.7,4.6,2.7
	L4.6,2.7z"/>
<path d="M4.6,6.5H3.1c-0.2,0-0.4,0.2-0.4,0.4l0,0v1.5c0,0.2,0.2,0.4,0.4,0.4l0,0h1.5C4.8,8.8,5,8.7,5,8.5l0,0V6.9
	C5,6.7,4.8,6.5,4.6,6.5L4.6,6.5z"/>
<path d="M4.6,15H3.1c-0.2,0-0.4,0.2-0.4,0.4l0,0v1.5c0,0.2,0.2,0.4,0.4,0.4l0,0h1.5c0.2,0,0.4-0.2,0.4-0.4l0,0v-1.5
	C5,15.2,4.8,15,4.6,15L4.6,15z"/>
<path d="M0.8,20C0.3,20,0,19.7,0,19.2V0.8C0,0.3,0.3,0,0.8,0h14.6c0.4,0,0.8,0.3,0.8,0.8v9.3c2.2,0.4,3.8,2.3,3.8,4.5
	s-1.6,4.2-3.8,4.5v0.1c0,0.4-0.3,0.8-0.8,0.8H0.8z M12.8,18.5c-1.1-0.8-1.9-2-2-3.4c-0.1-1.2,0.3-2.4,1.1-3.4
	c0.7-0.9,1.7-1.4,2.8-1.6V1.5H1.5v16.9H12.8z M15.4,11.5c-1.7,0-3.1,1.4-3.1,3.1s1.4,3.1,3.1,3.1s3.1-1.4,3.1-3.1
	S17.1,11.5,15.4,11.5z"/>
<path d="M15.2,15.4c-0.4,0-0.8-0.3-0.8-0.8v-1.5c0-0.4,0.3-0.8,0.8-0.8s0.8,0.3,0.8,0.8v0.8h0.8c0.4,0,0.8,0.3,0.8,0.8
	c0,0.4-0.3,0.8-0.8,0.8H15.2z"/>
</svg>
