<?xml version="1.0" encoding="utf-8"?>
<!-- Generator: Adobe Illustrator 25.3.1, SVG Export Plug-In . SVG Version: 6.00 Build 0)  -->
<svg version="1.1" xmlns="http://www.w3.org/2000/svg" xmlns:xlink="http://www.w3.org/1999/xlink" x="0px" y="0px"
	 viewBox="0 0 50 50" style="enable-background:new 0 0 50 50;" xml:space="preserve">
<path d="M49.6,19.5c-0.8-4.1-2.7-7.9-5.4-11C41.4,5.3,37.9,2.9,34,1.4c-1.5-0.5-3.1-0.9-4.7-1.2C27.9,0.1,26.5,0,25.1,0
	c-0.9,0-1.9,0-2.8,0.1C17.1,0.8,12.3,3,8.5,6.6c-3.8,3.5-6.3,8.1-7.3,13.2c-1,5.3-0.2,10.7,2.2,15.5l0.7,1.4l-2,6
	c-0.5,1.6-1.1,3.1-1.5,4.4c-0.2,0.6-0.3,1-0.4,1.4c-0.2,0.6-0.3,0.9,0,1.3l0.2,0.2h0.3c0.1,0,0.3,0,6.8-2.1l6.2-2l1,0.5
	c3.3,1.6,7,2.4,10.7,2.4c2,0,4-0.2,5.9-0.7c4.2-1,8.1-3.2,11.2-6.2c3.1-3,5.4-6.8,6.6-10.9C50.1,27.2,50.3,23.3,49.6,19.5z
	 M8.7,39.9l1.3-4l-0.8-1.1c-0.8-1.4-1.6-2.8-2.1-4.3c-3-9,1.1-18.9,9.6-23.2c2.7-1.4,5.6-2.1,8.6-2c1,0,1.9,0.1,2.8,0.2
	C35.8,6.5,42,12,44,19.3c0.8,3.2,0.9,6.5,0.1,9.7c-1.6,6.3-6.4,11.4-12.6,13.5c-2,0.7-4.1,1-6.2,1l0,0c-3.4,0-6.8-0.9-9.7-2.6
	c-1-0.6-1.1-0.6-1.3-0.6c-1.4,0.3-2.7,0.7-4.1,1.2c-1,0.3-1.8,0.6-2.4,0.7C8.1,41.6,8.4,40.8,8.7,39.9z"/>
<path d="M17.2,27.8c2.1,2.6,4.7,4.8,7.6,6.4c2.1,1,4.3,1.7,6.5,2.1c0.1,0,0.3,0,0.5,0c2.2-0.1,4.2-1,5.6-2.7c0.7-1,1.3-3.6,0.4-4.4
	c-1.7-1-3.4-1.8-5.2-2.6c-0.3-0.1-0.6-0.2-0.9-0.2c-0.1,0-0.2,0-0.3,0c-0.2,0-0.5,0.1-1.5,1.3c-0.4,0.6-0.9,1.2-1.5,1.7
	c-1.1-0.4-2.1-1-3.1-1.6c-1.6-1.2-3-2.6-4.2-4.2c-0.2-0.3-0.4-0.6-0.6-0.9c0.2-0.2,0.3-0.4,0.5-0.6c0.2-0.3,1.4-1.7,1.4-2.5
	c-0.3-1-0.6-2.1-1.1-3c-0.4-1.1-0.9-2.2-1.5-3.1l0,0c-0.5-0.5-0.8-0.5-1.9-0.5c-0.6-0.1-1.3,0-1.9,0.3c-1.3,0.9-2.3,2.3-2.8,3.8
	c-0.1,0.6-0.2,1.1-0.3,1.7c-0.1,1.5,0.3,3.1,1,4.4C15,24.7,16,26.3,17.2,27.8z"/>
</svg>
